<svg xmlns="http://www.w3.org/2000/svg" xmlns:svg="http://www.w3.org/2000/svg" xmlns:xlink="http://www.w3.org/1999/xlink" id="svg5" width="250" height="190" version="1.1" viewBox="0 0 66.146 50.271"><defs id="defs2"><linearGradient id="linearGradient6"><stop style="stop-color:#ffcdfa;stop-opacity:1" id="stop3" offset="0"/><stop style="stop-color:#f559ff;stop-opacity:1" id="stop4" offset=".25"/><stop style="stop-color:#8ddad9;stop-opacity:1" id="stop5" offset=".5"/><stop style="stop-color:#88ff8e;stop-opacity:1" id="stop6" offset="1"/></linearGradient><linearGradient id="linearGradient7113"><stop style="stop-color:#b23eaa;stop-opacity:1" id="stop7109" offset="0"/><stop style="stop-color:#35002f;stop-opacity:1" id="stop7111" offset="1"/></linearGradient><linearGradient id="linearGradient7107"><stop style="stop-color:#e418dc;stop-opacity:1" id="stop7103" offset="0"/><stop style="stop-color:#e400d3;stop-opacity:1" id="stop7105" offset="1"/></linearGradient><linearGradient id="linearGradient7101"><stop style="stop-color:#f69fef;stop-opacity:1" id="stop7097" offset="0"/><stop style="stop-color:#a8009a;stop-opacity:1" id="stop7099" offset="1"/></linearGradient><linearGradient id="linearGradient7032"><stop style="stop-color:#fff;stop-opacity:1" id="stop7028" offset="0"/><stop style="stop-color:#ef00ff;stop-opacity:.26274511" id="stop1368" offset=".25"/><stop style="stop-color:#41ffc9;stop-opacity:.53012049" id="stop7034" offset=".5"/><stop style="stop-color:#00ff0d;stop-opacity:1" id="stop7030" offset="1"/></linearGradient><linearGradient id="linearGradient2784"><stop style="stop-color:#a8009a;stop-opacity:1" id="stop2780" offset="0"/><stop style="stop-color:#004ca8;stop-opacity:1" id="stop2782" offset="1"/></linearGradient><linearGradient id="linearGradient2666"><stop style="stop-color:#f600e3;stop-opacity:1" id="stop2662" offset="0"/><stop style="stop-color:#a8009a;stop-opacity:1" id="stop2664" offset="1"/></linearGradient><linearGradient id="linearGradient2660"><stop style="stop-color:#f700e4;stop-opacity:1" id="stop2656" offset="0"/><stop style="stop-color:#a8009a;stop-opacity:1" id="stop2658" offset="1"/></linearGradient><linearGradient id="linearGradient2654"><stop style="stop-color:#e319dc;stop-opacity:1" id="stop2650" offset="0"/><stop style="stop-color:#a8009a;stop-opacity:1" id="stop2652" offset="1"/></linearGradient><linearGradient id="linearGradient2636"><stop style="stop-color:#ff84f6;stop-opacity:1" id="stop2632" offset="0"/><stop style="stop-color:#a8009a;stop-opacity:1" id="stop2634" offset="1"/></linearGradient><linearGradient id="linearGradient2628"><stop style="stop-color:#f200df;stop-opacity:1" id="stop2624" offset="0"/><stop style="stop-color:#a8009a;stop-opacity:1" id="stop2626" offset="1"/></linearGradient><linearGradient id="linearGradient2630" x1="15.28" x2="44.359" y1="19.719" y2="19.719" gradientTransform="matrix(1.8944485,0,0,1.8944485,-41.341959,6.99545)" gradientUnits="userSpaceOnUse" xlink:href="#linearGradient7113"/><linearGradient id="linearGradient2638" x1="17.995" x2="49.443" y1="10.211" y2="10.211" gradientTransform="matrix(1.8944485,0,0,1.8944485,-41.341959,6.99545)" gradientUnits="userSpaceOnUse" xlink:href="#linearGradient2784"/><linearGradient id="linearGradient2640" x1="10.952" x2="30.56" y1="14.725" y2="15.103" gradientTransform="matrix(1.8944485,0,0,1.8944485,-39.173046,6.3270412)" gradientUnits="userSpaceOnUse" xlink:href="#linearGradient7107"/><linearGradient id="linearGradient2642" x1="21.001" x2="39.719" y1="18.051" y2="18.051" gradientTransform="matrix(1.8944485,0,0,1.8944485,-41.341959,6.99545)" gradientUnits="userSpaceOnUse" xlink:href="#linearGradient2666"/><linearGradient id="linearGradient2644" x1="8.99" x2="37.374" y1="22.809" y2="22.47" gradientTransform="matrix(1.8944485,0,0,1.8944485,-39.173046,6.3270412)" gradientUnits="userSpaceOnUse" xlink:href="#linearGradient2636"/><linearGradient id="linearGradient2646" x1="22.139" x2="31.458" y1="22.846" y2="21.52" gradientTransform="matrix(1.8944485,0,0,1.8944485,-41.341959,6.99545)" gradientUnits="userSpaceOnUse" xlink:href="#linearGradient2660"/><linearGradient id="linearGradient2648" x1="21.604" x2="31.022" y1="11.636" y2="11.636" gradientTransform="matrix(1.8944485,0,0,1.8944485,-41.341959,6.99545)" gradientUnits="userSpaceOnUse" xlink:href="#linearGradient2654"/><linearGradient id="linearGradient4443" x1="21.001" x2="35.096" y1="18.051" y2="18.929" gradientTransform="matrix(1.8944485,0,0,1.8944485,-52.179858,2.4990183)" gradientUnits="userSpaceOnUse" xlink:href="#linearGradient7101"/><filter style="color-interpolation-filters:sRGB" id="filter6944" width="1.092" height="1.123" x="-.046" y="-.062"><feGaussianBlur id="feGaussianBlur6946" stdDeviation=".534"/></filter><linearGradient id="linearGradient7019" x1="15.28" x2="44.359" y1="19.719" y2="19.719" gradientTransform="rotate(-30,82.079704,22.237811)" gradientUnits="userSpaceOnUse" spreadMethod="pad" xlink:href="#linearGradient7032"/><clipPath id="clipPath7022" clipPathUnits="userSpaceOnUse"><path id="path7024" style="font-variation-settings:normal;opacity:1;vector-effect:none;fill:url(#linearGradient7026);fill-opacity:1;fill-rule:evenodd;stroke-width:1.058;stroke-linecap:round;stroke-linejoin:round;stroke-miterlimit:4;stroke-dasharray:none;stroke-dashoffset:0;stroke-opacity:1;-inkscape-stroke:none;paint-order:stroke fill markers;stop-color:#000;stop-opacity:1" d="m 42.289702,30.738966 a 8.694252,8.694252 0 0 0 -4.347538,1.164787 8.694252,8.694252 0 0 0 -0.833025,0.555004 c -0.183706,0.06267 -0.364241,0.143542 -0.538985,0.24443 l -0.920872,0.53175 c -7.94e-4,3.97e-4 -0.0013,6.35e-4 -0.0021,10e-4 l -4.782637,2.761067 -5.402255,3.119188 c -7.94e-4,5.03e-4 -0.0016,0.001 -0.0026,0.0016 l -4.291729,2.477885 c -0.793732,0.458261 -1.063908,1.466078 -0.605647,2.259809 l 0.01085,0.01809 c 0.458262,0.793734 1.466078,1.063911 2.25981,0.605649 l 1.696021,-0.979268 c 0.310945,0.480709 0.737921,0.844544 1.221628,1.076419 l -7.861942,4.539279 c -0.457069,0.263889 -0.612706,0.84466 -0.348817,1.301729 0.263889,0.457069 0.844144,0.612188 1.301213,0.348299 l 2.210201,-1.275891 c -0.04422,0.32705 0.01579,0.671102 0.194303,0.980302 0.428147,0.741573 1.369926,0.993487 2.111499,0.56534 l 1.560628,-0.901237 c -0.09264,0.65855 0.02573,1.352434 0.385507,1.975591 0.332764,0.576367 0.821481,1.003788 1.380794,1.261937 l -0.330729,0.191204 c -0.45707,0.26389 -0.612706,0.844661 -0.348816,1.301729 0.26389,0.45707 0.844661,0.61219 1.301729,0.3483 l 3.490227,-2.015382 c 0.932669,1.111539 2.546887,1.425557 3.848862,0.67386 l 9.683644,-5.590872 c 0.294711,-0.170151 0.549598,-0.381735 0.762744,-0.622701 A 8.694252,8.694252 0 0 0 46.636797,46.962815 8.694252,8.694252 0 0 0 49.81903,35.08602 8.694252,8.694252 0 0 0 42.289774,30.738999 Z"/></clipPath><linearGradient id="linearGradient7026" x1="15.28" x2="44.359" y1="19.719" y2="19.719" gradientTransform="rotate(-30,82.079704,22.23781)" gradientUnits="userSpaceOnUse" xlink:href="#linearGradient2628"/><clipPath id="clipPath7087" clipPathUnits="userSpaceOnUse"><path id="path7089" style="opacity:1;mix-blend-mode:difference;fill:#a8009a;fill-opacity:1;fill-rule:evenodd;stroke-width:1.058;stroke-linecap:round;stroke-linejoin:round;paint-order:stroke fill markers;stop-color:#000" d="m 42.289588,30.73877 a 8.694252,8.694252 0 0 0 -4.347538,1.164787 8.694252,8.694252 0 0 0 -0.833025,0.555004 c -0.183708,0.06267 -0.364241,0.143542 -0.538985,0.24443 l -0.920872,0.53175 c -7.94e-4,3.97e-4 -0.0013,6.35e-4 -0.0021,10e-4 l -4.782637,2.761068 -5.402255,3.119188 c -7.93e-4,5.03e-4 -0.0016,10e-4 -0.0026,0.0016 l -4.291683,2.477897 c -0.793732,0.458261 -1.063908,1.466078 -0.605647,2.259809 l 0.01085,0.01809 c 0.458261,0.793733 1.466078,1.063911 2.25981,0.605648 l 1.696021,-0.979267 c 0.310945,0.480708 0.737921,0.844544 1.221626,1.076419 l -7.861988,4.539266 c -0.457069,0.263889 -0.612706,0.84466 -0.348817,1.301729 0.263889,0.457069 0.844144,0.612188 1.301213,0.348299 l 2.210201,-1.275891 c -0.04422,0.32705 0.01579,0.671102 0.194303,0.980302 0.428147,0.741573 1.369926,0.993487 2.111499,0.56534 l 1.560628,-0.901237 c -0.09264,0.65855 0.02573,1.352434 0.385507,1.975591 0.332765,0.576367 0.821482,1.003788 1.380795,1.261935 l -0.330729,0.191206 c -0.45707,0.26389 -0.612706,0.844661 -0.348816,1.301729 0.26389,0.457068 0.844661,0.61219 1.301729,0.3483 l 3.490227,-2.015382 c 0.93267,1.111539 2.546887,1.425557 3.848862,0.67386 l 9.683644,-5.590872 c 0.294712,-0.170151 0.549598,-0.381735 0.762744,-0.622701 a 8.694252,8.694252 0 0 0 1.545127,-0.695048 8.694252,8.694252 0 0 0 3.182231,-11.876795 8.694252,8.694252 0 0 0 -7.529253,-4.347021 z"/></clipPath><filter style="color-interpolation-filters:sRGB" id="filter1234" width="1.199" height="1.271" x="-.099" y="-.136"><feGaussianBlur id="feGaussianBlur1236" stdDeviation="1.391"/></filter><linearGradient id="linearGradient3" x1="19.546" x2="61.251" y1="44.798" y2="9.503" gradientUnits="userSpaceOnUse" xlink:href="#linearGradient6"/></defs><g id="layer1"><rect style="fill:url(#linearGradient2630);fill-opacity:1;fill-rule:evenodd;stroke:none;stroke-width:2.00433;stroke-linecap:round;stroke-linejoin:round;stroke-opacity:1;paint-order:stroke fill markers;stop-color:#000" id="rect1742-1" width="49.985" height="11.705" x="-7.291" y="38.5" ry="5.852" transform="rotate(-30)"/><rect style="fill:url(#linearGradient2642);fill-opacity:1;fill-rule:evenodd;stroke:none;stroke-width:2.00433;stroke-linecap:round;stroke-linejoin:round;stroke-opacity:1;paint-order:stroke fill markers;stop-color:#000" id="rect1742-1-8-6-4-8" width="35.519" height="3.61" x="-1.557" y="39.387" ry="1.805" transform="rotate(-30)"/><rect style="fill:url(#linearGradient4443);fill-opacity:1;fill-rule:evenodd;stroke:none;stroke-width:2.00433;stroke-linecap:round;stroke-linejoin:round;stroke-opacity:1;paint-order:stroke fill markers;stop-color:#000" id="rect1742-1-8-6-4-8-6" width="35.268" height="5.856" x="-12.395" y="34.891" ry="2.928" transform="rotate(-30)"/><rect style="fill:url(#linearGradient2638);fill-opacity:1;fill-rule:evenodd;stroke:none;stroke-width:2.00433;stroke-linecap:round;stroke-linejoin:round;stroke-opacity:1;paint-order:stroke fill markers;stop-color:#000" id="rect1742-1-8" width="37.941" height="6.308" x="-7.25" y="23.186" ry="3.134" transform="rotate(-30)"/><rect style="fill:url(#linearGradient2648);fill-opacity:1;fill-rule:evenodd;stroke:none;stroke-width:2.00433;stroke-linecap:round;stroke-linejoin:round;stroke-opacity:1;paint-order:stroke fill markers;stop-color:#000" id="rect1742" width="35.681" height="11.705" x="-.414" y="23.186" ry="5.691" transform="rotate(-30)"/><path id="path1591" style="fill:#a8009a;fill-rule:evenodd;stroke-width:2.00433;stroke-linecap:round;stroke-linejoin:round;paint-order:stroke fill markers;stop-color:#000" d="M 62.305588,9.8062164 A 16.470813,16.470813 0 0 1 56.276853,32.305763 16.470813,16.470813 0 0 1 33.777304,26.277028 16.470813,16.470813 0 0 1 39.80604,3.7774818 16.470813,16.470813 0 0 1 62.305588,9.8062164 Z"/><rect style="fill:url(#linearGradient2646);fill-opacity:1;fill-rule:evenodd;stroke:none;stroke-width:2.00433;stroke-linecap:round;stroke-linejoin:round;stroke-opacity:1;paint-order:stroke fill markers;stop-color:#000" id="rect1742-7" width="32.717" height="11.669" x=".6" y="44.423" ry="5.767" transform="rotate(-30)"/><rect style="fill:url(#linearGradient2640);fill-opacity:1;fill-rule:evenodd;stroke:none;stroke-width:2.00433;stroke-linecap:round;stroke-linejoin:round;stroke-opacity:1;paint-order:stroke fill markers;stop-color:#000" id="rect1742-1-8-6-4" width="37.256" height="3.61" x="-18.425" y="32.418" ry="1.805" transform="rotate(-30)"/><rect style="fill:url(#linearGradient2644);fill-opacity:1;fill-rule:evenodd;stroke:none;stroke-width:2.00433;stroke-linecap:round;stroke-linejoin:round;stroke-opacity:1;paint-order:stroke fill markers;stop-color:#000" id="rect1742-1-8-6" width="29.738" height="3.61" x="-8.75" y="47.732" ry="1.805" transform="rotate(-30)"/></g><g id="layer1-9" transform="translate(1.1083043,-26.748814)" style="mix-blend-mode:normal"><path id="rect1742-7-1-1" style="mix-blend-mode:normal;fill:none;fill-rule:evenodd;stroke:#fff;stroke-width:.529167;stroke-linecap:round;stroke-linejoin:round;paint-order:stroke fill markers;filter:url(#filter6944);stop-color:#000" d="M 17.474315,43.720963 37.942347,31.903739 c 4.171312,-2.408308 9.468261,-0.988994 11.876569,3.182317 2.408308,4.171311 0.988994,9.46826 -3.182317,11.876568 l -15.232874,8.794704" clip-path="url(#clipPath7022)" transform="matrix(1.8944485,0,0,1.8944485,-33.182086,-29.913694)"/><path id="path6950-2" style="display:inline;opacity:.94508671;mix-blend-mode:normal;fill:url(#linearGradient7019);fill-rule:evenodd;stroke-width:1.058;stroke-linecap:round;stroke-linejoin:round;paint-order:stroke fill markers;filter:url(#filter1234);stop-color:#000" d="m 42.289702,30.738966 a 8.694252,8.694252 0 0 0 -4.347538,1.164787 8.694252,8.694252 0 0 0 -0.833025,0.555004 c -0.183706,0.06267 -0.364241,0.143542 -0.538985,0.24443 l -0.920872,0.53175 c -7.94e-4,3.97e-4 -0.0013,6.35e-4 -0.0021,10e-4 l -4.782653,2.761073 -5.402255,3.119188 c -7.93e-4,5.03e-4 -0.0016,0.001 -0.0026,0.0016 l -4.291728,2.477885 c -0.793732,0.458261 -1.063908,1.466078 -0.605647,2.259809 l 0.01085,0.01809 c 0.458262,0.793734 1.466078,1.063911 2.25981,0.605649 l 1.696021,-0.979268 c 0.310945,0.480709 0.737921,0.844544 1.221628,1.076419 l -7.861989,4.539266 c -0.457069,0.263889 -0.612706,0.84466 -0.348817,1.301729 0.263889,0.457069 0.844144,0.612188 1.301213,0.348299 l 2.210201,-1.275891 c -0.04422,0.32705 0.01579,0.671102 0.194303,0.980302 0.428147,0.741573 1.369926,0.993487 2.111499,0.56534 l 1.560628,-0.901237 c -0.09264,0.65855 0.02573,1.352434 0.385507,1.975591 0.332764,0.576367 0.821481,1.003788 1.380794,1.261936 l -0.330729,0.191204 c -0.45707,0.26389 -0.612706,0.844661 -0.348816,1.301729 0.26389,0.45707 0.844661,0.61219 1.301729,0.3483 l 3.490227,-2.015381 c 0.93267,1.111538 2.546887,1.425556 3.848862,0.673861 l 9.683644,-5.590873 c 0.294712,-0.170151 0.549598,-0.381735 0.762744,-0.622701 a 8.694252,8.694252 0 0 0 1.545127,-0.695048 8.694252,8.694252 0 0 0 3.182233,-11.876795 8.694252,8.694252 0 0 0 -7.529255,-4.347021 z" clip-path="url(#clipPath7087)" transform="matrix(1.8944485,0,0,1.8944485,-33.182086,-29.913694)"/></g><g id="layer2" style="display:inline"><path id="rect1742-7-1" style="fill:none;fill-rule:evenodd;stroke:url(#linearGradient3);stroke-width:1.5875;stroke-linecap:round;stroke-linejoin:round;paint-order:stroke fill markers;stop-color:#000;stroke-dasharray:none" d="M 1.0304067,26.164604 39.80604,3.7774818 C 47.708376,-0.78493363 57.743173,1.903883 62.305588,9.8062164 66.868004,17.708552 64.179186,27.743348 56.276853,32.305763 L 27.418958,48.966877"/><path id="path352" style="fill:#fff;fill-opacity:1;fill-rule:evenodd;stroke-width:2.00433;stroke-linecap:round;stroke-linejoin:round;paint-order:stroke fill markers;stop-color:#000" d="M 48.041439,5.2849713 A 12.75612,12.75612 0 0 0 35.285287,18.041126 12.75612,12.75612 0 0 0 48.041439,30.797278 12.75612,12.75612 0 0 0 60.797594,18.041126 12.75612,12.75612 0 0 0 48.041439,5.2849713 Z m -4.002083,5.1984027 a 1.0014649,1.0030615 0 0 1 0.54823,0.133143 l 11.337598,6.556264 a 1.0014649,1.0030615 0 0 1 0.500262,0.869339 1.0014649,1.0030615 0 0 1 -0.500262,0.867377 L 44.587579,25.466729 A 1.0014649,1.0030615 0 0 1 43.08484,24.597391 l -2e-6,-13.112499 a 1.0014649,1.0030615 0 0 1 0.954508,-1.001501 z"/></g></svg>